#!OML:ASF E:\emotionWalksFemale\Project 1\Capture day 1\Session 1\Female1.ASF
:FULLY-SPECIFIED
:DEGREES
466
root 7.29118 15.0309 40.6095 -181.11 1.38845 -180.933
lowerback 8.55191 0.927118 0.0733505
upperback -3.78356 1.26229 -0.377005
thorax -8.80836 0.61367 -0.646038
lowerneck -6.09073 -1.33038 -4.4014
upperneck 15.7858 -2.3297 2.89824
head 5.85 -1.42288 1.45734
rclavicle 1.63531e-014 -7.25564e-015
rhumerus -46.094 16.6299 -99.6176
rradius 37.0435
rwrist 3.11712
rhand 164.113 -69.298
rfingers 7.12502
rthumb -169.691 -39.5707
lclavicle 1.63531e-014 -7.25564e-015
lhumerus -47.9357 -9.17688 94.1689
lradius 38.2969
lwrist -14.2454
lhand -2.94045 -37.2313
lfingers 7.12502
lthumb 22.7711 -8.55524
rfemur -27.1834 18.2737 18.6043
rtibia 28.5062
rfoot -20.278 -25.086
rtoes 13.8648
lfemur 3.98151 -13.6409 -33.4426
ltibia 19.3511
lfoot -24.6196 16.2059
ltoes -21.5935
467
root 7.29827 15.0341 40.573 -181.036 1.29718 -180.937
lowerback 8.39056 0.951846 0.0351854
upperback -3.71125 1.28707 -0.409913
thorax -8.63511 0.627336 -0.65877
lowerneck -6.02897 -1.35325 -4.5345
upperneck 15.6437 -2.36217 3.07423
head 5.79933 -1.42945 1.53354
rclavicle -1.07157e-015 2.02512e-015
rhumerus -46.1675 16.8145 -99.8458
rradius 37.1337
rwrist 2.15679
rhand 163.96 -69.6781
rfingers 7.12502
rthumb -169.839 -39.9435
lclavicle -1.07157e-015 2.02512e-015
lhumerus -47.7306 -9.12303 93.9911
lradius 38.4934
lwrist -13.8385
lhand -1.49612 -36.6828
lfingers 7.12502
lthumb 24.1566 -8.18392
rfemur -27.419 18.8565 18.304
rtibia 28.0257
rfoot -19.6506 -25.9978
rtoes 11.6165
lfemur 4.19736 -13.5199 -33.396
ltibia 18.9997
lfoot -24.366 16.0602
ltoes -22.5194
468
root 7.29941 15.0343 40.534 -181.065 1.5038 -181.069
lowerback 8.33933 1.08016 -0.0405545
upperback -3.65129 1.44301 -0.485777
thorax -8.53857 0.705108 -0.718651
lowerneck -6.43487 -1.44219 -4.27906
upperneck 15.8784 -2.47202 2.89798
head 5.94275 -1.47676 1.42454
rclavicle -6.63716e-015 7.77124e-015
rhumerus -46.3196 17.2985 -100.439
rradius 37.152
rwrist -0.000211353
rhand 161.668 -69.7494
rfingers 7.12502
rthumb -172.05 -39.9189
lclavicle -6.63716e-015 7.77124e-015
lhumerus -47.6768 -9.34916 94.1206
lradius 38.3988
lwrist -14.1482
lhand -2.67902 -36.6109
lfingers 7.12502
lthumb 23.022 -7.96588
rfemur -27.6637 19.4603 17.8991
rtibia 27.6182
rfoot -19.6908 -26.5371
rtoes 6.84354
lfemur 4.5528 -13.3894 -33.5952
ltibia 18.617
lfoot -24.2708 16.055
ltoes -22.7877
469
root 7.30477 15.0417 40.4888 -180.876 1.07205 -181.09
lowerback 8.13259 0.979863 -0.0771161
upperback -3.79253 1.31174 -0.492874
thorax -8.57257 0.64615 -0.683377
lowerneck -6.36992 -1.4866 -3.97204
upperneck 16.0036 -2.53073 2.52115
head 5.9652 -1.52163 1.25022
rclavicle -8.80127e-015 1.37907e-015
rhumerus -46.9858 18.075 -101.42
rradius 36.3315
rwrist -4.80843
rhand 154.648 -68.0598
rfingers 7.12502
rthumb -178.828 -38.0833
lclavicle -8.80127e-015 1.37907e-015
lhumerus -47.8677 -9.4365 94.1844
lradius 38.4588
lwrist -13.4575
lhand -1.77028 -37.3196
lfingers 7.12502
lthumb 23.8937 -8.78603
rfemur -27.9761 20.2572 17.3562
rtibia 27.2749
rfoot -20.0645 -26.7209
rtoes 11.3383
lfemur 4.77302 -13.6254 -33.5541
ltibia 18.185
lfoot -24.0512 15.9061
ltoes -23.5758
470
root 7.30959 15.0399 40.4504 -180.766 1.04998 -181.224
lowerback 7.94288 1.02284 -0.189941
upperback -3.77653 1.354 -0.556033
thorax -8.44496 0.672548 -0.688788
lowerneck -6.26915 -1.56197 -3.8666
upperneck 15.7935 -2.61744 2.42757
head 5.88241 -1.55829 1.19889
rclavicle -6.94611e-015 1.57785e-015
rhumerus -45.8253 15.8325 -98.9749
rradius 34.8276
rwrist 3.6261
rhand 159.941 -73.3525
rfingers 7.12502
rthumb -173.717 -43.4657
lclavicle -6.94611e-015 1.57785e-015
lhumerus -47.83 -9.58466 94.1945
lradius 38.3565
lwrist -13.7588
lhand -2.22883 -38.1313
lfingers 7.12502
lthumb 23.4539 -9.54085
rfemur -28.2059 20.8219 16.8709
rtibia 26.8872
rfoot -20.6877 -27.4102
rtoes 10.5708
lfemur 4.92887 -13.6427 -33.699
ltibia 17.9442
lfoot -23.9334 15.8448
ltoes -23.5875
471
root 7.31756 15.0394 40.4084 -180.655 1.15696 -181.397
lowerback 7.79787 1.14285 -0.403701
upperback -3.77739 1.48853 -0.630061
thorax -8.36365 0.749229 -0.663833
lowerneck -6.42754 -1.64534 -4.03891
upperneck 15.8435 -2.74584 2.71245
head 5.93562 -1.60697 1.30666
rclavicle -7.5973e-015 -8.23714e-015
rhumerus -45.8676 15.9337 -99.087
rradius 35.6188
rwrist 5.4428
rhand 162.673 -71.5678
rfingers 7.12502
rthumb -171.08 -41.7764
lclavicle -7.5973e-015 -8.23714e-015
lhumerus -47.8084 -9.79509 94.2394
lradius 38.3195
lwrist -14.0201
lhand -2.30726 -38.2757
lfingers 7.12502
lthumb 23.3787 -9.67559
rfemur -28.44 21.4424 16.3883
rtibia 26.4861
rfoot -18.8993 -28.517
rtoes 3.60654
lfemur 5.03122 -13.5194 -33.8648
ltibia 17.81
lfoot -23.7836 15.7609
ltoes -23.1669
472
root 7.32301 15.0348 40.3719 -180.8 0.758109 -180.963
lowerback 8.06059 1.03023 0.0494076
upperback -3.7484 1.39234 -0.501798
thorax -8.47862 0.678081 -0.773763
lowerneck -6.68931 -1.63688 -4.28148
upperneck 16.1144 -2.75867 3.01869
head 6.0736 -1.60775 1.43953
rclavicle 2.05936e-014 -4.24281e-015
rhumerus -45.8641 15.9827 -99.0107
rradius 35.5517
rwrist 5.5405
rhand 162.727 -71.9388
rfingers 7.12502
rthumb -171.028 -42.1496
lclavicle 2.05936e-014 -4.24281e-015
lhumerus -47.7191 -9.70693 94.2081
lradius 38.4996
lwrist -13.332
lhand -0.371899 -37.451
lfingers 7.12502
lthumb 25.2341 -9.09956
rfemur -28.26 22.2291 16.5289
rtibia 25.9624
rfoot -21.6733 -28.124
rtoes 18.2836
lfemur 5.28185 -13.5617 -33.3858
ltibia 17.9549
lfoot -23.7883 15.4693
ltoes -22.5475
473
root 7.32201 15.0246 40.3354 -180.61 1.56418 -181.059
lowerback 7.88997 1.31426 -0.0400827
upperback -3.82008 1.7671 -0.514034
thorax -8.45445 0.867414 -0.790277
lowerneck -6.73157 -1.64005 -4.30134
upperneck 16.2383 -2.7659 2.99035
head 6.12022 -1.61813 1.43244
rclavicle 1.42352e-014 -1.28278e-015
rhumerus -45.9209 16.0339 -99.012
rradius 35.4903
rwrist 5.54409
rhand 162.647 -72.286
rfingers 7.12502
rthumb -171.105 -42.4935
lclavicle 1.42352e-014 -1.28278e-015
lhumerus -47.6519 -9.47621 94.1649
lradius 38.1279
lwrist -14.1461
lhand -1.60123 -37.5612
lfingers 7.12502
lthumb 24.0558 -9.04888
rfemur -28.5875 22.505 16.3009
rtibia 25.2654
rfoot -19.8519 -28.4186
rtoes 13.8348
lfemur 4.95714 -13.2272 -33.5915
ltibia 18.4614
lfoot -24.3089 15.7858
ltoes -21.5451
474
root 7.32832 15.0255 40.2953 -180.439 1.19121 -180.647
lowerback 7.75739 1.24725 0.408826
upperback -3.90828 1.73934 -0.425563
thorax -8.46207 0.833188 -0.942747
lowerneck -6.55481 -1.7484 -4.33614
upperneck 16.1744 -2.91942 2.98579
head 6.07583 -1.69781 1.42698
rclavicle 5.208e-015 3.16813e-016
rhumerus -46.1597 15.9347 -99.1943
rradius 35.7888
rwrist 5.07773
rhand 162.206 -71.6967
rfingers 7.12502
rthumb -171.531 -41.8865
lclavicle 5.208e-015 3.16813e-016
lhumerus -47.605 -9.38069 94.122
lradius 38.1486
lwrist -13.7719
lhand -0.927726 -37.3464
lfingers 7.12502
lthumb 24.7015 -8.92095
rfemur -28.7472 22.7411 16.4677
rtibia 25.0075
rfoot -17.7801 -30.3449
rtoes 1.22225
lfemur 5.00023 -13.3348 -33.0713
ltibia 18.3858
lfoot -24.166 15.4648
ltoes -22.0175
475
root 7.33768 15.0252 40.2677 -180.091 0.816036 -180.134
lowerback 7.75559 1.17935 0.870391
upperback -4.11244 1.72403 -0.264143
thorax -8.6746 0.806117 -1.03325
lowerneck -6.20491 -1.84085 -4.60888
upperneck 15.861 -3.04937 3.22397
head 5.92904 -1.75812 1.54239
rclavicle -1.24085e-015 -9.89264e-016
rhumerus -46.6021 16.3909 -99.8116
rradius 36.5096
rwrist 3.46008
rhand 161.367 -70.0745
rfingers 7.12502
rthumb -172.341 -40.2332
lclavicle -1.24085e-015 -9.89264e-016
lhumerus -47.7358 -9.55318 94.3762
lradius 37.9909
lwrist -14.4447
lhand -2.85811 -37.342
lfingers 7.12502
lthumb 22.8501 -8.67565
rfemur -29.1088 23.1148 16.6178
rtibia 24.7535
rfoot -20.2433 -30.4341
rtoes 9.38004
lfemur 4.7188 -13.5372 -32.3617
ltibia 18.3767
lfoot -23.8676 15.187
ltoes -21.9355
476
root 7.33673 15.0122 40.2112 -180.924 0.787868 -181.834
lowerback 8.36022 1.27342 -0.777334
upperback -3.84935 1.61091 -0.675225
thorax -8.77984 0.826725 -0.537007
lowerneck -6.63225 -1.85384 -4.27902
upperneck 16.3778 -3.00891 2.52916
head 6.15042 -1.77608 1.26434
rclavicle 1.90492e-014 -6.23687e-015
rhumerus -46.4871 16.1003 -99.3136
rradius 36.2926
rwrist 4.8842
rhand 162.596 -70.1547
rfingers 7.12502
rthumb -171.155 -40.3601
lclavicle 1.90492e-014 -6.23687e-015
lhumerus -47.7674 -9.41652 94.463
lradius 37.9044
lwrist -14.421
lhand -2.97709 -37.0103
lfingers 7.12502
lthumb 22.736 -8.32986
rfemur -28.1589 23.4538 14.9314
rtibia 24.6345
rfoot -21.158 -30.6052
rtoes 10.0067
lfemur 5.95382 -13.4689 -34.5549
ltibia 18.2853
lfoot -23.8127 15.3426
ltoes -21.7422
477
root 7.35157 15.0231 40.1673 -180.65 0.383364 -181.255
lowerback 8.06576 1.11216 -0.306878
upperback -3.93622 1.47129 -0.47925
thorax -8.69419 0.740076 -0.565894
lowerneck -6.17855 -1.84036 -4.63937
upperneck 15.8483 -2.99586 2.92604
head 5.91519 -1.75448 1.45745
rclavicle -1.21103e-014 2.31087e-015
rhumerus -46.5204 16.2405 -99.4036
rradius 36.2356
rwrist 4.54323
rhand 162.349 -70.223
rfingers 7.12502
rthumb -171.393 -40.4184
lclavicle -1.21103e-014 2.31087e-015
lhumerus -47.7816 -9.15673 94.352
lradius 38.0219
lwrist -13.5933
lhand -1.81464 -36.8557
lfingers 7.12502
lthumb 23.8512 -8.3165
rfemur -28.5621 24.5059 14.995
rtibia 24.5283
rfoot -21.6809 -31.9629
rtoes 11.1469
lfemur 5.88252 -12.9902 -33.5949
ltibia 18.1365
lfoot -23.5727 14.2569
ltoes -22.8299
478
root 7.3609 15.0314 40.1263 -180.523 0.168943 -180.974
lowerback 7.95818 1.07353 -0.0147511
upperback -3.99973 1.46022 -0.440543
thorax -8.69363 0.720572 -0.685936
lowerneck -6.25686 -1.8818 -4.64262
upperneck 16.0495 -3.08925 3.05555
head 5.99737 -1.7968 1.49046
rclavicle -2.11985e-016 -1.2424e-015
rhumerus -46.5975 16.2643 -99.6187
rradius 36.2163
rwrist 3.93794
rhand 161.886 -70.1837
rfingers 7.12502
rthumb -171.84 -40.3613
lclavicle -2.11985e-016 -1.2424e-015
lhumerus -47.8761 -9.09413 94.1967
lradius 37.967
lwrist -13.8351
lhand -2.1366 -37.489
lfingers 7.12502
lthumb 23.5424 -8.90983
rfemur -28.9078 24.9004 15.0255
rtibia 24.7143
rfoot -22.2903 -32.2404
rtoes 14.8917
lfemur 6.19985 -13.1806 -33.2484
ltibia 17.5906
lfoot -23.3005 13.9851
ltoes -22.4814
479
root 7.3677 15.0351 40.0839 -180.48 -0.0129734 -180.944
lowerback 7.88788 1.13096 0.0621752
upperback -3.99281 1.43228 -0.4687
thorax -8.64237 0.655057 -0.745721
lowerneck -6.11344 -1.89564 -4.709
upperneck 15.9739 -3.12732 3.18609
head 5.95302 -1.81136 1.54165
rclavicle -1.26661e-014 8.58812e-016
rhumerus -46.6123 16.1934 -99.587
rradius 36.2444
rwrist 4.07091
rhand 162.145 -70.1793
rfingers 7.12502
rthumb -171.59 -40.3667
lclavicle -1.26661e-014 8.58812e-016
lhumerus -47.7942 -8.90623 93.8918
lradius 37.9484
lwrist -13.7103
lhand -1.15179 -38.2603
lfingers 7.12502
lthumb 24.4867 -9.80564
rfemur -28.6221 24.7579 15.1347
rtibia 24.4459
rfoot -22.7304 -32.6502
rtoes 13.7247
lfemur 6.25632 -13.1857 -33.1812
ltibia 17.7387
lfoot -23.4008 13.735
ltoes -21.7914
